<mxfile host="Electron" modified="2024-05-01T09:37:26.986Z" agent="Mozilla/5.0 (Windows NT 10.0; Win64; x64) AppleWebKit/537.36 (KHTML, like Gecko) draw.io/24.2.5 Chrome/120.0.6099.109 Electron/28.1.0 Safari/537.36" etag="TFmXP0wVGZHG57wvx7vN" version="24.2.5" type="device">
  <diagram id="lB7ZyROyTgT5vGHNnFZN" name="Pagina-1">
    <mxGraphModel dx="512" dy="303" grid="1" gridSize="10" guides="1" tooltips="1" connect="1" arrows="1" fold="1" page="1" pageScale="1" pageWidth="827" pageHeight="1169" math="0" shadow="0">
      <root>
        <mxCell id="0" />
        <mxCell id="1" parent="0" />
        <mxCell id="yl--_30f9Sy2A1LfnA0q-1" value="&lt;font style=&quot;font-size: 8px;&quot;&gt;Periodo storico&lt;/font&gt;" style="text;html=1;align=center;verticalAlign=middle;whiteSpace=wrap;rounded=0;" parent="1" vertex="1">
          <mxGeometry x="214.11" y="90.63" width="71" height="29" as="geometry" />
        </mxCell>
        <mxCell id="yl--_30f9Sy2A1LfnA0q-2" value="&lt;font style=&quot;font-size: 8px;&quot;&gt;Nome&lt;/font&gt;" style="text;html=1;align=center;verticalAlign=middle;whiteSpace=wrap;rounded=0;" parent="1" vertex="1">
          <mxGeometry x="164.55" y="90.63" width="63" height="30" as="geometry" />
        </mxCell>
        <mxCell id="yl--_30f9Sy2A1LfnA0q-3" value="&lt;span style=&quot;font-size: 8px;&quot;&gt;(0,N)&lt;/span&gt;" style="text;html=1;align=center;verticalAlign=middle;whiteSpace=wrap;rounded=1;strokeColor=none;glass=0;" parent="1" vertex="1">
          <mxGeometry x="326.99000000000007" y="131.00000000000003" width="22.5" height="6.75" as="geometry" />
        </mxCell>
        <mxCell id="yl--_30f9Sy2A1LfnA0q-4" value="&lt;font style=&quot;font-size: 8px;&quot;&gt;(1,1)&lt;/font&gt;" style="text;html=1;align=center;verticalAlign=middle;whiteSpace=wrap;rounded=1;strokeColor=none;glass=0;" parent="1" vertex="1">
          <mxGeometry x="424.69" y="130.99999999999994" width="22.5" height="6.75" as="geometry" />
        </mxCell>
        <mxCell id="yl--_30f9Sy2A1LfnA0q-5" style="edgeStyle=orthogonalEdgeStyle;rounded=0;orthogonalLoop=1;jettySize=auto;html=1;exitX=0.25;exitY=0;exitDx=0;exitDy=0;entryX=0.5;entryY=1;entryDx=0;entryDy=0;endArrow=oval;endFill=0;" parent="1" edge="1">
          <mxGeometry relative="1" as="geometry">
            <mxPoint x="196.74" y="115.20999999999998" as="targetPoint" />
            <mxPoint x="194.12" y="132.71" as="sourcePoint" />
          </mxGeometry>
        </mxCell>
        <mxCell id="yl--_30f9Sy2A1LfnA0q-6" style="edgeStyle=orthogonalEdgeStyle;rounded=0;orthogonalLoop=1;jettySize=auto;html=1;exitX=1;exitY=0;exitDx=0;exitDy=0;entryX=0.25;entryY=1;entryDx=0;entryDy=0;endArrow=oval;endFill=0;" parent="1" source="yl--_30f9Sy2A1LfnA0q-7" edge="1">
          <mxGeometry relative="1" as="geometry">
            <mxPoint x="248.74" y="115.20999999999998" as="targetPoint" />
            <mxPoint x="261.62" y="132.71" as="sourcePoint" />
          </mxGeometry>
        </mxCell>
        <mxCell id="yl--_30f9Sy2A1LfnA0q-7" value="CiviltÃ " style="whiteSpace=wrap;html=1;align=center;" parent="1" vertex="1">
          <mxGeometry x="189" y="132.75" width="70" height="30" as="geometry" />
        </mxCell>
        <mxCell id="yl--_30f9Sy2A1LfnA0q-8" value="" style="curved=1;endArrow=oval;html=1;rounded=0;entryX=0.642;entryY=0.924;entryDx=0;entryDy=0;entryPerimeter=0;endFill=1;" parent="1" edge="1">
          <mxGeometry width="50" height="50" relative="1" as="geometry">
            <mxPoint x="181.99" y="127.94999999999999" as="sourcePoint" />
            <mxPoint x="273.99" y="116.94999999999999" as="targetPoint" />
            <Array as="points">
              <mxPoint x="223.44" y="128.39999999999998" />
              <mxPoint x="273.44" y="128.39999999999998" />
            </Array>
          </mxGeometry>
        </mxCell>
        <mxCell id="yl--_30f9Sy2A1LfnA0q-9" value="&lt;font style=&quot;font-size: 8px;&quot;&gt;(1,N)&lt;/font&gt;" style="text;html=1;align=center;verticalAlign=middle;whiteSpace=wrap;rounded=1;strokeColor=none;glass=0;" parent="1" vertex="1">
          <mxGeometry x="154" y="162.75" width="50" height="15" as="geometry" />
        </mxCell>
        <mxCell id="yl--_30f9Sy2A1LfnA0q-10" value="&lt;p style=&quot;line-height: 70%;&quot;&gt;&lt;font style=&quot;font-size: 9px;&quot;&gt;Area Geografica&lt;/font&gt;&lt;/p&gt;" style="text;html=1;align=center;verticalAlign=middle;whiteSpace=wrap;rounded=0;" parent="1" vertex="1">
          <mxGeometry x="144" y="176.75" width="60" height="30" as="geometry" />
        </mxCell>
        <mxCell id="yl--_30f9Sy2A1LfnA0q-11" style="edgeStyle=orthogonalEdgeStyle;rounded=0;orthogonalLoop=1;jettySize=auto;html=1;exitX=0.25;exitY=1;exitDx=0;exitDy=0;endArrow=oval;endFill=0;" parent="1" edge="1">
          <mxGeometry relative="1" as="geometry">
            <mxPoint x="190.95000000000005" y="162.75" as="sourcePoint" />
            <mxPoint x="192.04000000000002" y="188.25" as="targetPoint" />
          </mxGeometry>
        </mxCell>
        <mxCell id="yl--_30f9Sy2A1LfnA0q-12" value="" style="endArrow=none;html=1;rounded=0;entryX=1;entryY=0.5;entryDx=0;entryDy=0;exitX=0;exitY=0.5;exitDx=0;exitDy=0;" parent="1" target="yl--_30f9Sy2A1LfnA0q-7" edge="1">
          <mxGeometry width="50" height="50" relative="1" as="geometry">
            <mxPoint x="527.19" y="147.75" as="sourcePoint" />
            <mxPoint x="328.9" y="132.75000000000006" as="targetPoint" />
          </mxGeometry>
        </mxCell>
        <mxCell id="yl--_30f9Sy2A1LfnA0q-13" value="Offerta" style="shape=rhombus;perimeter=rhombusPerimeter;whiteSpace=wrap;html=1;align=center;" parent="1" vertex="1">
          <mxGeometry x="343.44000000000005" y="122.13" width="92.5" height="51" as="geometry" />
        </mxCell>
        <mxCell id="yl--_30f9Sy2A1LfnA0q-14" style="edgeStyle=orthogonalEdgeStyle;rounded=0;orthogonalLoop=1;jettySize=auto;html=1;exitX=0.25;exitY=0;exitDx=0;exitDy=0;endArrow=oval;endFill=0;" parent="1" source="yl--_30f9Sy2A1LfnA0q-16" edge="1">
          <mxGeometry relative="1" as="geometry">
            <mxPoint x="542.3333333333335" y="115.75" as="targetPoint" />
          </mxGeometry>
        </mxCell>
        <mxCell id="yl--_30f9Sy2A1LfnA0q-15" style="edgeStyle=orthogonalEdgeStyle;rounded=0;orthogonalLoop=1;jettySize=auto;html=1;exitX=0.75;exitY=0;exitDx=0;exitDy=0;endArrow=oval;endFill=0;" parent="1" source="yl--_30f9Sy2A1LfnA0q-16" edge="1">
          <mxGeometry relative="1" as="geometry">
            <mxPoint x="586" y="115.75" as="targetPoint" />
          </mxGeometry>
        </mxCell>
        <mxCell id="yl--_30f9Sy2A1LfnA0q-16" value="Esperienza" style="whiteSpace=wrap;html=1;align=center;" parent="1" vertex="1">
          <mxGeometry x="520" y="132" width="90" height="28.75" as="geometry" />
        </mxCell>
        <mxCell id="yl--_30f9Sy2A1LfnA0q-17" value="&lt;font style=&quot;font-size: 8px;&quot;&gt;Nome&lt;/font&gt;" style="text;html=1;align=center;verticalAlign=middle;whiteSpace=wrap;rounded=1;strokeColor=none;" parent="1" vertex="1">
          <mxGeometry x="521.63" y="95.76999999999998" width="40" height="20" as="geometry" />
        </mxCell>
        <mxCell id="yl--_30f9Sy2A1LfnA0q-18" value="&lt;font style=&quot;font-size: 8px;&quot;&gt;Descrizione&lt;/font&gt;" style="text;html=1;align=center;verticalAlign=middle;whiteSpace=wrap;rounded=1;strokeColor=none;" parent="1" vertex="1">
          <mxGeometry x="567.88" y="97" width="40" height="20" as="geometry" />
        </mxCell>
        <mxCell id="yl--_30f9Sy2A1LfnA0q-19" value="&lt;font style=&quot;font-size: 8px;&quot;&gt;Durata&lt;/font&gt;" style="text;html=1;align=center;verticalAlign=middle;whiteSpace=wrap;rounded=1;strokeColor=none;" parent="1" vertex="1">
          <mxGeometry x="631" y="129.25" width="40" height="20" as="geometry" />
        </mxCell>
        <mxCell id="yl--_30f9Sy2A1LfnA0q-20" value="&lt;font style=&quot;font-size: 8px;&quot;&gt;Luogo&lt;/font&gt;" style="text;html=1;align=center;verticalAlign=middle;whiteSpace=wrap;rounded=1;strokeColor=none;" parent="1" vertex="1">
          <mxGeometry x="630" y="142.75" width="40" height="20" as="geometry" />
        </mxCell>
        <mxCell id="yl--_30f9Sy2A1LfnA0q-21" style="edgeStyle=orthogonalEdgeStyle;rounded=0;orthogonalLoop=1;jettySize=auto;html=1;exitX=1;exitY=0.5;exitDx=0;exitDy=0;endArrow=oval;endFill=0;" parent="1" edge="1">
          <mxGeometry relative="1" as="geometry">
            <mxPoint x="610" y="141.05" as="sourcePoint" />
            <mxPoint x="633.12" y="141.05" as="targetPoint" />
          </mxGeometry>
        </mxCell>
        <mxCell id="yl--_30f9Sy2A1LfnA0q-22" style="edgeStyle=orthogonalEdgeStyle;rounded=0;orthogonalLoop=1;jettySize=auto;html=1;exitX=1;exitY=0.5;exitDx=0;exitDy=0;endArrow=oval;endFill=0;" parent="1" edge="1">
          <mxGeometry relative="1" as="geometry">
            <mxPoint x="610" y="154.75" as="sourcePoint" />
            <mxPoint x="633" y="154.75" as="targetPoint" />
            <Array as="points">
              <mxPoint x="626" y="154.75" />
            </Array>
          </mxGeometry>
        </mxCell>
        <mxCell id="yl--_30f9Sy2A1LfnA0q-23" value="" style="curved=1;endArrow=oval;html=1;rounded=0;endFill=1;" parent="1" edge="1">
          <mxGeometry width="50" height="50" relative="1" as="geometry">
            <mxPoint x="548.99" y="123.53" as="sourcePoint" />
            <mxPoint x="486.74" y="166.53" as="targetPoint" />
            <Array as="points">
              <mxPoint x="488.99" y="123.53" />
              <mxPoint x="486.74" y="173.13000000000002" />
            </Array>
          </mxGeometry>
        </mxCell>
      </root>
    </mxGraphModel>
  </diagram>
</mxfile>
